<?xml version="1.0" standalone="no"?><!DOCTYPE svg PUBLIC "-//W3C//DTD SVG 1.1//EN" "http://www.w3.org/Graphics/SVG/1.1/DTD/svg11.dtd"><svg t="1649119848508" class="icon" viewBox="0 0 1024 1024" version="1.1" xmlns="http://www.w3.org/2000/svg" p-id="45249" xmlns:xlink="http://www.w3.org/1999/xlink" width="16" height="16"><defs><style type="text/css">@font-face { font-family: feedback-iconfont; src: url("//at.alicdn.com/t/font_1031158_u69w8yhxdu.woff2?t=1630033759944") format("woff2"), url("//at.alicdn.com/t/font_1031158_u69w8yhxdu.woff?t=1630033759944") format("woff"), url("//at.alicdn.com/t/font_1031158_u69w8yhxdu.ttf?t=1630033759944") format("truetype"); }
</style></defs><path d="M512.3 98.2c-228.8 0-414.9 186.1-414.9 414.9 0 23.9 2.6 48.2 6.5 71 0 0.1 0.2 0.1 0.3 0.2 1.7 5.8 6.8 10.1 13.1 10.1 7.6 0 13.8-6.2 13.8-13.8 0-0.5-0.2-0.9-0.3-1.3l0.2-0.1c-3.7-21.5-6-43.5-6-66C125 299.3 298.4 126 512.2 126s387.2 173.4 387.2 387.2-173.3 387.2-387.1 387.2c-142.9 0-267.4-77.6-334.5-192.8 0-0.1-0.1-0.1-0.1-0.2l-0.6-0.9c-2.3-4.3-6.8-7.4-12-7.4-7.6 0-13.8 6.2-13.8 13.8 0 3 1.2 5.6 2.8 7.9l-0.2 0.1C225.6 844.5 359.3 928 512.3 928c228.8 0 414.9-186.1 414.9-414.9S741.1 98.2 512.3 98.2z" fill="#bfbfbf" p-id="45250"></path><path d="M614.7 410.7l82 83.6c10.6 10.8 10.5 28.1-0.1 38.8l-81.9 82.7-0.1-0.1c-2.5 2.8-6.1 4.7-10.2 4.7-7.6 0-13.8-6.2-13.8-13.8 0-4 1.8-7.6 4.6-10.1l-0.1-0.1 68.1-68.8H333.8c-7.6 0-13.8-6.2-13.8-13.8s6.2-13.8 13.8-13.8h329.5l-68.4-70 0.1-0.1c-2.8-2.5-4.6-6.1-4.6-10.1 0-7.6 6.2-13.8 13.8-13.8 4.3-0.1 7.9 1.8 10.5 4.7z" fill="#bfbfbf" p-id="45251"></path></svg>