<?xml version="1.0" standalone="no"?><!DOCTYPE svg PUBLIC "-//W3C//DTD SVG 1.1//EN" "http://www.w3.org/Graphics/SVG/1.1/DTD/svg11.dtd"><svg t="1649124885735" class="icon" viewBox="0 0 1024 1024" version="1.1" xmlns="http://www.w3.org/2000/svg" p-id="49642" xmlns:xlink="http://www.w3.org/1999/xlink" width="16" height="16"><defs><style type="text/css">@font-face { font-family: feedback-iconfont; src: url("//at.alicdn.com/t/font_1031158_u69w8yhxdu.woff2?t=1630033759944") format("woff2"), url("//at.alicdn.com/t/font_1031158_u69w8yhxdu.woff?t=1630033759944") format("woff"), url("//at.alicdn.com/t/font_1031158_u69w8yhxdu.ttf?t=1630033759944") format("truetype"); }
</style></defs><path d="M952.32 614.4h-281.6c107.52 389.12-76.8 409.6-76.8 409.6-76.8 0-61.44-61.44-66.56-71.68 0-189.44-209.92-337.92-209.92-337.92V71.68c0-51.2 76.8-71.68 102.4-71.68h424.96c40.96 0 71.68 102.4 71.68 102.4 102.4 343.04 102.4 445.44 102.4 445.44 5.12 71.68-66.56 66.56-66.56 66.56zM204.8 614.4H35.84c-35.84 0-35.84-35.84-35.84-35.84L35.84 30.72c0-30.72 35.84-30.72 35.84-30.72h143.36c30.72 0 30.72 20.48 30.72 20.48v552.96c0 40.96-40.96 40.96-40.96 40.96z" p-id="49643" fill="#f85611"></path></svg>